<?xml version="1.0" encoding="UTF-8" standalone="no"?>
<svg
   xmlns:dc="http://purl.org/dc/elements/1.1/"
   xmlns:cc="http://creativecommons.org/ns#"
   xmlns:rdf="http://www.w3.org/1999/02/22-rdf-syntax-ns#"
   xmlns:svg="http://www.w3.org/2000/svg"
   xmlns="http://www.w3.org/2000/svg"
   xmlns:sodipodi="http://sodipodi.sourceforge.net/DTD/sodipodi-0.dtd"
   xmlns:inkscape="http://www.inkscape.org/namespaces/inkscape"
   fill="#51A7F9"
   version="1.1"
   x="0px"
   y="0px"
   viewBox="0 0 100 100"
   enable-background="new 0 0 100 100"
   xml:space="preserve"
   id="svg62"
   sodipodi:docname="TransPi_Logo.svg"
   inkscape:version="0.92.0 r15299"><metadata
     id="metadata68"><rdf:RDF><cc:Work
         rdf:about=""><dc:format>image/svg+xml</dc:format><dc:type
           rdf:resource="http://purl.org/dc/dcmitype/StillImage" /><dc:title></dc:title></cc:Work></rdf:RDF></metadata><defs
     id="defs66" /><sodipodi:namedview
     pagecolor="#ffffff"
     bordercolor="#666666"
     borderopacity="1"
     objecttolerance="10"
     gridtolerance="10"
     guidetolerance="10"
     inkscape:pageopacity="0"
     inkscape:pageshadow="2"
     inkscape:window-width="1600"
     inkscape:window-height="837"
     id="namedview64"
     showgrid="false"
     inkscape:zoom="3.34"
     inkscape:cx="22.175625"
     inkscape:cy="37.083699"
     inkscape:window-x="-8"
     inkscape:window-y="-8"
     inkscape:window-maximized="1"
     inkscape:current-layer="layer2" /><g
     display="none"
     id="g22"><path
       display="inline"
       opacity="0.4"
       fill="none"
       stroke="#51A7F9"
       stroke-width="3"
       stroke-linejoin="round"
       stroke-miterlimit="10"
       d="   M74.75,65c0,13.669-11.081,24.75-24.75,24.75S25.25,78.669,25.25,65s0-13.669,24.75-54.75C74.75,51.331,74.75,51.331,74.75,65z"
       id="path10" /><line
       display="inline"
       opacity="0.4"
       fill="none"
       stroke="#51A7F9"
       stroke-width="3"
       stroke-miterlimit="10"
       x1="45.076"
       y1="71"
       x2="55.076"
       y2="71"
       id="line12" /><line
       display="inline"
       opacity="0.4"
       fill="none"
       stroke="#51A7F9"
       stroke-width="3"
       stroke-miterlimit="10"
       x1="47.402"
       y1="76"
       x2="52.75"
       y2="76"
       id="line14" /><g
       display="inline"
       opacity="0.4"
       id="g20"><path
         fill="none"
         stroke="#51A7F9"
         stroke-width="3"
         stroke-miterlimit="10"
         d="M61.392,53.316c0-6.25-5.066-11.316-11.316-11.316    S38.76,47.066,38.76,53.316c0,3.33,1.447,6.314,3.737,8.385L45.076,66h10l2.579-4.298C59.945,59.631,61.392,56.646,61.392,53.316z    "
         id="path16" /><polyline
         fill="none"
         stroke="#51A7F9"
         stroke-width="3"
         stroke-miterlimit="10"
         points="48.764,66.062 46.764,58.938     53.389,58.938 51.389,66.062   "
         id="polyline18" /></g></g><g
     id="g58"><g
       id="g56" /></g><g
     inkscape:groupmode="layer"
     id="layer2"
     inkscape:label="Bulb"><g
       id="g3829"
       transform="translate(-0.80239521)"><g
         style="fill:#000000"
         transform="matrix(1,0,0,-1,0,118.06425)"
         id="g3808"><g
           style="fill:#000000"
           id="g34"><g
             style="fill:#000000"
             id="g32"><path
               style="fill:#000000"
               inkscape:connector-curvature="0"
               id="path30"
               d="M 46.78,64.601 C 45.016,57.607 36.168,50.845 45.341,45.342 c 5.747,-3.447 11.656,-1.27 14.149,4.802 2.466,6.003 -2.314,10.879 -5.452,15.433 -1.101,1.598 1.501,3.096 2.591,1.514 4.241,-6.155 8.424,-11.243 5.271,-18.92 -2.014,-4.904 -7.272,-8.496 -12.675,-7.413 -5.257,1.054 -11.091,4.456 -11.296,10.353 -0.184,5.272 4.729,9.414 5.959,14.289 0.472,1.873 3.365,1.078 2.892,-0.799 z" /></g></g><g
           style="fill:#000000"
           id="g52"><g
             style="fill:#000000"
             id="g50"><path
               style="fill:#000000"
               inkscape:connector-curvature="0"
               id="path48"
               d="m 45.935,71.779 c 2.613,0.744 5.382,0.019 8,0.667 1.878,0.465 2.675,-2.428 0.798,-2.893 -2.625,-0.65 -5.423,0.067 -8,-0.667 -1.865,-0.531 -2.656,2.364 -0.798,2.893 z" /></g></g><path
           style="fill:#000000"
           inkscape:connector-curvature="0"
           id="path54"
           d="m 48,77.5 c 1.333,0 2.667,0 4,0 1.935,0 1.935,-3 0,-3 -1.333,0 -2.667,0 -4,0 -1.935,0 -1.935,3 0,3 z" /></g><path
         inkscape:connector-curvature="0"
         id="path3818"
         d="m 45.083718,67.022917 c -0.587806,-0.587806 -0.621467,-1.498777 -0.07555,-2.044692 0.329421,-0.32942 0.492473,-0.367447 1.575562,-0.367447 1.1793,0 1.211936,-0.0098 1.368341,-0.411676 0.08813,-0.226422 0.127954,-0.832005 0.08851,-1.34574 -0.0715,-0.931224 -0.549864,-2.099183 -1.549588,-3.78343 -0.396549,-0.668069 -0.398116,-0.681665 -0.141017,-1.223462 0.451106,-0.950635 0.777573,-1.020123 4.792729,-1.020123 3.75809,0 4.375901,0.09516 4.713512,0.725988 0.418835,0.782601 0.05132,2.522447 -1.097889,5.197529 -0.377558,0.878861 -0.686469,1.657101 -0.686469,1.729422 0,0.07232 0.499251,0.131492 1.109447,0.131492 1.064434,0 1.125808,0.01944 1.512679,0.479213 0.334505,0.397538 0.389728,0.579883 0.324007,1.069873 -0.04357,0.324863 -0.220838,0.732346 -0.393921,0.905518 -0.306507,0.306664 -0.454988,0.315972 -5.706023,0.357696 l -5.391327,0.04284 z m 6.890519,-5.113797 c 0.411162,-0.94298 0.748185,-1.798716 0.748941,-1.901635 9.9e-4,-0.134965 -0.34931,-0.187126 -1.2567,-0.187126 h -1.258073 l 0.301448,0.785928 c 0.169395,0.441645 0.336511,1.330591 0.381489,2.029278 0.04414,0.68566 0.137295,1.186097 0.207686,1.115707 0.0702,-0.0702 0.464048,-0.899172 0.875209,-1.842152 z"
         style="fill:#000000;fill-opacity:1;fill-rule:nonzero;stroke:#ffffff;stroke-width:0.1497006;stroke-opacity:1" /></g></g><g
     inkscape:groupmode="layer"
     id="layer1"
     inkscape:label="Bead"><g
       style=""
       id="g28"><g
         id="g26"><path
           inkscape:connector-curvature="0"
           id="path24"
           d="M 48.038,10.909 C 42.134,19.874 37.056,29.353 32.44,39.037 28.878,46.51 25.74,53.951 24.935,62.262 23.47,77.377 33.361,88.906 48.466,89.998 64.268,91.141 76.545,76.991 75.291,61.79 74.552,52.83 69.674,44.666 64.845,37.347 59.835,29.753 52.033,20.749 51.167,11.331 c -0.175,-1.91 -3.177,-1.927 -3,0 1.277,13.898 13.888,25.56 20.02,37.487 3.96,7.703 5.806,16.723 2.312,24.923 C 67.476,80.838 60.687,85.339 53.307,86.748 45.367,88.264 36.299,84.904 31.524,78.389 27.533,72.943 27.326,65.575 28.323,59.167 29.519,51.48 33.169,44.363 36.525,37.441 40.701,28.828 45.363,20.417 50.629,12.42 51.696,10.802 49.097,9.301 48.038,10.909 Z" /></g></g></g></svg>